# Blender 4.0.2
# www.blender.org
mtllib box.mtl
o Plane.004
v 4.000000 8.000001 4.000000
v -4.000000 8.000000 4.000000
v 4.000000 8.000000 -4.000000
v -4.000000 7.999999 -4.000000
v -4.000000 0.000000 -4.000000
v -4.000000 0.000000 4.000000
v 4.000000 0.000000 -4.000000
v 4.000000 0.000000 4.000000
v -4.000000 8.000000 -4.000000
v -4.000000 8.000000 4.000000
v -4.000000 0.000000 -4.000000
v -4.000000 0.000000 4.000000
v 4.000000 8.000000 -4.000000
v -4.000000 8.000000 -4.000000
v 4.000000 0.000000 -4.000000
v -4.000000 0.000000 -3.999999
v 3.999999 8.000000 4.000000
v 3.999998 8.000000 -4.000000
v 4.000002 0.000000 4.000000
v 4.000000 0.000000 -4.000000
vn -0.0000 -1.0000 -0.0000
vn -0.0000 1.0000 -0.0000
vn 1.0000 -0.0000 -0.0000
vn -0.0000 -0.0000 1.0000
vn -1.0000 -0.0000 -0.0000
vt 1.000000 0.000000
vt 0.000000 1.000000
vt 0.000000 0.000000
vt 1.000000 1.000000
s 0
f 2/1/1 3/2/1 1/3/1
f 5/3/2 8/4/2 7/2/2
f 10/1/3 11/2/3 9/3/3
f 14/1/4 15/2/4 13/3/4
f 18/1/5 19/2/5 17/3/5
f 2/1/1 4/4/1 3/2/1
f 5/3/2 6/1/2 8/4/2
f 10/1/3 12/4/3 11/2/3
f 14/1/4 16/4/4 15/2/4
f 18/1/5 20/4/5 19/2/5
