# Blender 4.0.2
# www.blender.org
mtllib box_grey_faces.mtl
o Plane.003
v -4.000000 8.000000 4.000000
v -4.000000 8.000001 -4.000000
v 4.000000 8.000000 4.000000
v 4.000000 8.000001 -4.000000
v -4.000000 0.000000 -4.000000
v -4.000000 0.000000 4.000000
v 4.000000 0.000000 -4.000000
v 4.000000 0.000000 4.000000
v -4.000000 0.000000 -4.000000
v -4.000000 8.000000 -4.000000
v 4.000000 0.000000 -4.000000
v 4.000000 8.000000 -4.000000
vn -0.0000 -1.0000 -0.0000
vn -0.0000 1.0000 -0.0000
vn -0.0000 -0.0000 -1.0000
vt 1.000000 0.000000
vt 0.000000 1.000000
vt 0.000000 0.000000
vt 1.000000 1.000000
s 0
f 2/1/1 3/2/1 1/3/1
f 6/1/2 7/2/2 5/3/2
f 10/1/3 11/2/3 9/3/3
f 2/1/1 4/4/1 3/2/1
f 6/1/2 8/4/2 7/2/2
f 10/1/3 12/4/3 11/2/3
